<?xml version="1.0" standalone="no"?>
<!DOCTYPE svg PUBLIC "-//W3C//DTD SVG 20010904//EN"
 "http://www.w3.org/TR/2001/REC-SVG-20010904/DTD/svg10.dtd">
<svg version="1.0" xmlns="http://www.w3.org/2000/svg"
 width="700.000000pt" height="700.000000pt" viewBox="0 0 700.000000 700.000000"
 preserveAspectRatio="xMidYMid meet">
<metadata>
Created by potrace 1.11, written by Peter Selinger 2001-2013
</metadata>
<g transform="translate(0.000000,700.000000) scale(0.100000,-0.100000)"
fill="#000000" stroke="none">
<path d="M350 5600 l0 -1050 3150 0 3150 0 0 1050 0 1050 -3150 0 -3150 0 0
-1050z m5950 0 l0 -700 -2800 0 -2800 0 0 700 0 700 2800 0 2800 0 0 -700z"/>
<path d="M1050 5600 l0 -350 175 0 175 0 0 350 0 350 -175 0 -175 0 0 -350z"/>
<path d="M1750 5600 l0 -350 175 0 175 0 0 350 0 350 -175 0 -175 0 0 -350z"/>
<path d="M2450 5600 l0 -350 175 0 175 0 0 350 0 350 -175 0 -175 0 0 -350z"/>
<path d="M5600 5775 l0 -175 175 0 175 0 0 175 0 175 -175 0 -175 0 0 -175z"/>
<path d="M350 3150 l0 -1050 1488 -2 1487 -3 0 -268 0 -267 -55 -16 c-197 -57
-373 -231 -436 -431 l-19 -63 -882 0 -883 0 0 -175 0 -175 894 0 894 0 6 -23
c13 -55 86 -165 152 -232 128 -129 288 -197 464 -197 95 0 118 3 207 31 178
54 353 218 414 385 l13 36 928 0 928 0 0 175 0 175 -917 0 -918 0 -22 69 c-32
98 -86 185 -164 262 -66 65 -180 139 -229 149 l-25 5 0 283 0 282 1487 0 1488
0 0 1050 0 1050 -3150 0 -3150 0 0 -1050z m5950 0 l0 -700 -2800 0 -2800 0 0
700 0 700 2800 0 2800 0 0 -700z m-2740 -1942 c165 -53 258 -239 200 -398 -82
-225 -345 -285 -517 -118 -102 99 -120 259 -42 385 73 118 227 174 359 131z"/>
<path d="M1050 3150 l0 -350 175 0 175 0 0 350 0 350 -175 0 -175 0 0 -350z"/>
<path d="M1750 3150 l0 -350 175 0 175 0 0 350 0 350 -175 0 -175 0 0 -350z"/>
<path d="M5600 3325 l0 -175 175 0 175 0 0 175 0 175 -175 0 -175 0 0 -175z"/>
</g>
</svg>
